<?xml version="1.0" encoding="UTF-8"?>
<svg id="Warstwa_2" data-name="Warstwa 2" xmlns="http://www.w3.org/2000/svg" viewBox="0 0 32.5 32.5">
  <g id="Warstwa_1-2" data-name="Warstwa 1">
    <path d="m16.25,0c-3.21,0-6.36.95-9.03,2.74-2.67,1.79-4.75,4.32-5.99,7.29C0,13-.31,16.27.31,19.42c.63,3.15,2.18,6.05,4.45,8.32,2.27,2.27,5.17,3.82,8.32,4.45,3.15.63,6.42.31,9.39-.92,2.97-1.23,5.51-3.31,7.29-5.99,1.79-2.67,2.74-5.81,2.74-9.03,0-2.13-.42-4.25-1.24-6.22-.82-1.97-2.01-3.76-3.52-5.27-1.51-1.51-3.3-2.71-5.27-3.52-1.97-.82-4.08-1.24-6.22-1.24Zm4.4,18.35c.15.15.27.33.36.53.08.2.12.41.12.62s-.04.43-.12.62c-.08.2-.2.38-.36.53-.15.15-.33.27-.53.36-.2.08-.41.12-.62.12s-.43-.04-.62-.12c-.2-.08-.38-.2-.53-.36l-2.1-2.11-2.1,2.11c-.15.15-.33.27-.53.36-.2.08-.41.12-.62.12s-.43-.04-.62-.12c-.2-.08-.38-.2-.53-.36-.15-.15-.27-.33-.36-.53-.08-.2-.12-.41-.12-.62s.04-.43.12-.62c.08-.2.2-.38.36-.53l2.11-2.1-2.11-2.1c-.31-.31-.48-.72-.48-1.15s.17-.85.48-1.15c.31-.31.72-.48,1.15-.48s.85.17,1.15.48l2.1,2.11,2.1-2.11c.31-.31.72-.48,1.15-.48s.85.17,1.15.48c.31.31.48.72.48,1.15s-.17.85-.48,1.15l-2.11,2.1,2.11,2.1Z"/>
  </g>
</svg>